#N struct 1195-matrixctrl float x float y float size float color float
state;
#N canvas 822 59 1218 699 10;
#X declare -path matrixctrl;
#X declare -lib iemmatrix;
#X declare -lib maxlib;
#X declare -lib zexy;
#X declare -path mmb;
#X declare -lib hexloader;
#X declare -lib creb;
#X declare -lib freeverb~;
#X text 934 635 macumbista@gmail.com;
#X text 934 625 DEREK HOLZER;
#X obj 20 9 benjolin \$0;
#N canvas 576 190 709 505 midistuff 1;
#X obj 171 237 s \$1-01CV-MIDI;
#X obj 281 237 s \$1-02CV-MIDI;
#X obj 171 277 s \$1-FILCV-MIDI;
#X obj 281 277 s \$1-FILTYPE-MIDI;
#X obj 401 277 s \$1-VOL-MIDI;
#X text 178 453 NOTE: replace \$1 with whatever unique name you have
given in each [benjolin] instance!;
#X obj 69 23 dumpOSC 7771;
#X obj 68 60 list split 1;
#X obj 28 134 * 127;
#X floatatom 28 189 5 0 0 0 - - -;
#X obj 27 161 int;
#X obj 171 337 s \$0-01FRQ-MIDI;
#X obj 102 92 unpack 0 0 0 0 0 0 0 0;
#X obj 75 134 * 127;
#X floatatom 75 189 5 0 0 0 - - -;
#X obj 74 161 int;
#X obj 118 134 * 127;
#X floatatom 118 189 5 0 0 0 - - -;
#X obj 117 161 int;
#X obj 160 135 * 127;
#X floatatom 160 190 5 0 0 0 - - -;
#X obj 159 162 int;
#X obj 281 337 s \$0-01RUN-MIDI;
#X obj 202 132 * 127;
#X floatatom 202 187 5 0 0 0 - - -;
#X obj 201 159 int;
#X obj 249 132 * 127;
#X floatatom 249 187 5 0 0 0 - - -;
#X obj 248 159 int;
#X obj 292 132 * 127;
#X floatatom 292 187 5 0 0 0 - - -;
#X obj 291 159 int;
#X obj 334 133 * 127;
#X floatatom 334 188 5 0 0 0 - - -;
#X obj 333 160 int;
#X obj 401 337 s \$0-02RUN-MIDI;
#X obj 516 337 s \$0-02FRQ-MIDI;
#X obj 171 387 s \$0-FILFRQ-MIDI;
#X obj 281 387 s \$0-FILRES-MIDI;
#X obj 401 387 s \$0-FILRUN-MIDI;
#X obj 516 387 s \$0-FILSWP-MIDI;
#X connect 6 0 7 0;
#X connect 7 1 12 0;
#X connect 8 0 10 0;
#X connect 9 0 11 0;
#X connect 10 0 9 0;
#X connect 12 0 8 0;
#X connect 12 1 13 0;
#X connect 12 2 16 0;
#X connect 12 3 19 0;
#X connect 12 4 23 0;
#X connect 12 5 26 0;
#X connect 12 6 29 0;
#X connect 12 7 32 0;
#X connect 13 0 15 0;
#X connect 14 0 22 0;
#X connect 15 0 14 0;
#X connect 16 0 18 0;
#X connect 17 0 35 0;
#X connect 18 0 17 0;
#X connect 19 0 21 0;
#X connect 20 0 36 0;
#X connect 21 0 20 0;
#X connect 23 0 25 0;
#X connect 24 0 37 0;
#X connect 25 0 24 0;
#X connect 26 0 28 0;
#X connect 27 0 38 0;
#X connect 28 0 27 0;
#X connect 29 0 31 0;
#X connect 30 0 39 0;
#X connect 31 0 30 0;
#X connect 32 0 34 0;
#X connect 33 0 40 0;
#X connect 34 0 33 0;
#X restore 934 482 pd midistuff;
#X text 932 448 Put your MIDI controller inputs in here!;
#X text 930 106 SIGNAL INLETS;
#X text 951 129 O1 CV;
#X text 951 149 O2 CV;
#X text 951 169 FIL CV;
#X text 951 189 EXT FIL SOURCE;
#X text 951 209 EXT CLK SOURCE;
#X text 930 246 SIGNAL OUTLETS;
#X text 951 269 MAIN OUT;
#X text 951 289 O1 TRI;
#X text 951 309 O1 PLS;
#X text 951 329 O2 TRI;
#X text 951 349 O2 PLS;
#X text 951 369 PWM;
#X text 951 389 RUN;
#X text 951 409 XOR;
#X text 934 541 USAGE: [benjolin \$0] or [benjolin "uniquename"];
#X text 934 614 NOV 2016;
#X obj 949 10 adc~;
#N canvas 569 419 450 300 outlet 0;
#X obj 68 50 inlet~;
#X obj 68 210 dac~;
#X obj 114 114 rev2~ 80 90 3000 30;
#X connect 0 0 1 0;
#X connect 0 0 1 1;
#X connect 0 0 2 0;
#X connect 2 0 1 1;
#X connect 2 0 1 0;
#X restore 20 718 pd outlet + reverb;
#X obj 935 509 import freeverb~;
#X text 930 27 EXTERNAL INPUTS to this patch;
#X text 951 70 CH 2 External clock source to RUNGLER;
#X text 951 50 CH 1 External input to FILTER;
#X text 934 576 Pls see the README.TXT for more details!;
#X connect 2 0 23 0;
#X connect 22 0 2 3;
#X connect 22 1 2 4;
