#N canvas 264 101 787 545 12;
#X obj 169 105 print;
#X obj 274 79 loadbang;
#X obj 274 103 del 20000;
#X msg 274 135 \; pd quit;
#X obj 50 79 r param1;
#X floatatom 50 103 5 0 0 0 - - - 0;
#X floatatom 50 159 5 0 0 0 - - - 0;
#X obj 50 135 r param2;
#X floatatom 51 221 5 0 0 0 - - - 0;
#X floatatom 51 277 5 0 0 0 - - - 0;
#X obj 51 197 r param3;
#X obj 51 253 r param4;
#X obj 169 81 r text_entry;
#X text 354 102 connect close pd automatically 20 seconds after loading;
#X connect 1 0 2 0;
#X connect 4 0 5 0;
#X connect 7 0 6 0;
#X connect 10 0 8 0;
#X connect 11 0 9 0;
#X connect 12 0 0 0;
