#N struct 1025-point float x0 float y0 float xs float ys float fg float in float gridx float gridy;
#N canvas 0 38 1206 735 12;
#X obj 108 123 cnv 19 370 270 empty empty empty 20 12 0 12 #c6feff #404040 0;
#X obj 506 201 oscparse;
#X obj 506 178 netreceive -u -b 12000;
#X obj 506 228 unpack s f f f f;
#X floatatom 533 305 5 0 0 0 - - - 0;
#X floatatom 586 258 5 0 0 0 - - - 0;
#X obj 133 258 else/slider2d 127 127 0 1 0 1 1 226.47 226.47 226.47 0 0 0 0 0 0 0 0 empty empty;
#X obj 533 330 pack f f;
#X obj 586 281 - 1;
#X obj 586 305 abs;
#N canvas 324 362 450 278 (subpatch) 0;
#X array \$0-draw-X 81 float 3;
#A 0 0 0 0 0 0 0 0 0 0 0 0 0 0 0 0 0.280556 0.382407 0.511111 0.486111 0.32963 0.197222 0.178704 0.262037 0.367593 0.624074 0.687037 0.673148 0.525 0.255556 0.15 0.0953704 0.125926 0 0.331481 0 0.541667 0.55 0.617593 0.62037 0.535185 0.442593 0.192593 0.128704 0.210185 0.401852 0 0.642593 0.641667 0.501852 0.437963 0 0 0 0 0 0 0 0 0 0 0 0 0.39537 0.508333 0.337037 0.0962963 0.155556 0.398148 0.587963 0.553704 0.409259 0.451852 0.5 0 0 0 0 0 0 0 0;
#X coords 0 1 81 0 200 60 1 0 0;
#X restore 270 239 graph;
#N canvas 411 449 450 278 (subpatch) 0;
#X array \$0-draw-Y 81 float 3;
#A 0 0 0 0 0 0 0 0 0 0 0 0 0 0 0 0 0.153811 0.167423 0.236388 0.275862 0.350272 0.415154 0.439201 0.536751 0.553085 0.589383 0.622505 0.711887 0.766788 0.803993 0.845735 0.933303 0.978675 0 0.975953 0 0.914247 0.908802 0.805808 0.784936 0.702359 0.678312 0.625681 0.592559 0.516334 0.481397 0 0.354356 0.34755 0.246824 0.228221 0 0 0 0 0 0 0 0 0 0 0 0 0.357532 0.455082 0.537659 0.635662 0.697368 0.677858 0.695554 0.761797 0.774955 0.666062 0.53176 0 0 0 0 0 0 0 0;
#X coords 0 1 81 0 200 60 1 0 0;
#X restore 270 322 graph;
#X obj 845 244 f;
#X obj 880 243 + 1;
#X obj 647 307 tabwrite \$0-draw-X;
#X obj 142 157 tgl 30 0 empty empty empty 0 -10 0 12 #ff8300 #000000 #000000 0 1;
#X obj 845 215 metro 100;
#X obj 647 357 tabwrite \$0-draw-Y;
#X obj 1017 327 bng 19 250 50 0 empty empty empty 0 -10 0 12 #fcfcfc #000000 #000000;
#X obj 1017 351 f \$0;
#X msg 1017 376 \; \$1-draw-X const 0;
#X msg 1017 415 \; \$1-draw-Y const 0;
#X msg 983 327 0;
#X obj 982 303 sel 1;
#X obj 839 404 f \$0;
#X msg 839 462 \; \$1-draw-X resize \$2;
#X obj 839 428 pack f f;
#X msg 892 404 5000;
#X obj 839 377 t b b;
#X msg 1001 463 \; \$1-draw-Y resize \$2;
#X obj 880 267 % 5000;
#X obj 936 302 sel 0;
#X obj 936 403 f \$0;
#X obj 936 427 pack f f;
#X obj 127 617 tabread \$0-draw-Y;
#X obj 141 198 tgl 30 0 empty empty empty 0 -10 0 12 #faff00 #000000 #000000 0 1;
#X obj 127 519 metro 100;
#X obj 127 543 f;
#X obj 163 543 + 1;
#X obj 163 567 %;
#X obj 128 591 tabread \$0-draw-X;
#X obj 127 643 pack f f;
#X obj 127 668 spigot;
#X text 176 203 replay;
#X text 176 162 record;
#X obj 80 520 sel 1;
#X msg 80 544 0;
#X msg 506 152 listen \$1;
#X floatatom 276 187 7 0 0 2 PORT - - 0;
#X obj 280 45 loadbang;
#X msg 280 69 12000;
#X obj 179 442 outlet;
#X obj 557 473 expr if($f1 > 0 \, 1 \, 0);
#X obj 557 497 tgl 19 0 empty empty empty 0 -10 0 12 #fcfcfc #000000 #000000 0 1;
#X obj 590 622 outlet;
#X obj 533 419 spigot;
#X obj 572 357 - 1;
#X obj 572 381 abs;
#X obj 566 545 spigot;
#X obj 342 578 expr if($f1 > 0 \, 1 \, 0);
#X obj 342 602 tgl 19 0 empty empty empty 0 -10 0 12 #fcfcfc #000000 #000000 0 1;
#X obj 342 627 spigot;
#X obj 112 45 loadbang;
#X msg 112 69 0;
#X connect 1 0 3 0;
#X connect 2 0 1 0;
#X connect 3 3 4 0;
#X connect 3 4 5 0;
#X connect 4 0 7 0;
#X connect 4 0 14 0;
#X connect 4 0 52 0;
#X connect 5 0 8 0;
#X connect 6 0 51 0;
#X connect 7 0 55 0;
#X connect 8 0 9 0;
#X connect 9 0 7 1;
#X connect 9 0 17 0;
#X connect 12 0 13 0;
#X connect 12 0 14 1;
#X connect 12 0 17 1;
#X connect 12 0 33 1;
#X connect 12 0 39 1;
#X connect 13 0 30 0;
#X connect 15 0 16 0;
#X connect 15 0 23 0;
#X connect 15 0 31 0;
#X connect 16 0 12 0;
#X connect 18 0 19 0;
#X connect 19 0 20 0;
#X connect 19 0 21 0;
#X connect 22 0 12 0;
#X connect 23 0 22 0;
#X connect 23 0 28 0;
#X connect 23 0 18 0;
#X connect 24 0 26 0;
#X connect 26 0 25 0;
#X connect 26 0 29 0;
#X connect 27 0 26 1;
#X connect 27 0 39 1;
#X connect 28 0 24 0;
#X connect 28 1 27 0;
#X connect 30 0 12 1;
#X connect 31 0 32 0;
#X connect 32 0 33 0;
#X connect 33 0 25 0;
#X connect 33 0 29 0;
#X connect 34 0 41 1;
#X connect 35 0 36 0;
#X connect 35 0 42 1;
#X connect 35 0 45 0;
#X connect 35 0 56 0;
#X connect 35 0 61 1;
#X connect 36 0 37 0;
#X connect 37 0 38 0;
#X connect 37 0 34 0;
#X connect 37 0 40 0;
#X connect 38 0 39 0;
#X connect 39 0 37 1;
#X connect 40 0 41 0;
#X connect 40 0 59 0;
#X connect 41 0 42 0;
#X connect 42 0 6 0;
#X connect 45 0 46 0;
#X connect 46 0 37 0;
#X connect 47 0 2 0;
#X connect 48 0 47 0;
#X connect 49 0 50 0;
#X connect 50 0 48 0;
#X connect 52 0 53 0;
#X connect 53 0 58 0;
#X connect 55 0 6 0;
#X connect 56 0 57 0;
#X connect 57 0 55 1;
#X connect 57 0 58 1;
#X connect 58 0 54 0;
#X connect 59 0 60 0;
#X connect 60 0 61 0;
#X connect 61 0 54 0;
#X connect 62 0 63 0;
#X connect 63 0 35 0;
#X coords 0 -1 1 1 385 300 1 100 100;
