#N struct 1030-point float x0 float y0 float xs float ys float fg float in float gridx float gridy;
#N canvas 0 38 1206 735 12;
#X obj 110 124 cnv 19 370 250 empty empty Draw\ gesture\ interface 120 30 0 17 #c7c6ff #000000 0;
#X obj 782 93 oscparse;
#X obj 782 70 netreceive -u -b 12000;
#X floatatom 713 220 5 0 0 0 - - - 0;
#X floatatom 783 245 5 0 0 0 - - - 0;
#X obj 128 228 else/slider2d 127 127 0 1 0 1 1 226.47 226.47 226.47 0 0 0 0 0 0 0 1 empty empty;
#X obj 713 245 pack f f;
#X obj 783 268 - 1;
#X obj 783 292 abs;
#X obj 836 254 f;
#X obj 871 253 + 1;
#X obj 713 385 tabwrite \$0-draw-X;
#X obj 127 143 tgl 30 0 empty empty RECORD 40 15 0 12 #ff0400 #000000 #000000 0 1;
#X obj 836 225 metro 100;
#X obj 713 410 tabwrite \$0-draw-Y;
#X obj 1034 334 bng 19 250 50 0 empty empty empty 0 -10 0 12 #fcfcfc #000000 #000000;
#X obj 1034 358 f \$0;
#X msg 1034 383 \; \$1-draw-X const 0;
#X msg 1034 422 \; \$1-draw-Y const 0;
#X msg 1000 334 0;
#X obj 999 310 sel 1;
#X obj 856 411 f \$0;
#X msg 856 469 \; \$1-draw-X resize \$2;
#X obj 856 435 pack f f;
#X msg 909 411 5000;
#X obj 856 384 t b b;
#X msg 1018 470 \; \$1-draw-Y resize \$2;
#X obj 871 277 % 5000;
#X obj 953 309 sel 0;
#X obj 953 410 f \$0;
#X obj 953 434 pack f f;
#X obj 134 580 tabread \$0-draw-Y;
#X obj 126 183 tgl 30 0 empty empty PLAY 40 15 0 12 #faff00 #000000 #000000 0 1;
#X obj 134 482 metro 100;
#X obj 134 506 f;
#X obj 170 506 + 1;
#X obj 170 530 %;
#X obj 135 554 tabread \$0-draw-X;
#X obj 134 606 pack f f;
#X obj 134 631 spigot;
#X obj 87 483 sel 1;
#X msg 87 507 0;
#X msg 782 44 listen \$1;
#X floatatom 411 194 7 0 0 2 OSC\ PORT - - 0;
#X obj 280 45 loadbang;
#X msg 280 69 12000;
#X obj 133 423 outlet;
#X obj 539 418 expr if($f1 > 0 \, 1 \, 0);
#X obj 539 442 tgl 19 0 empty empty empty 0 -10 0 12 #fcfcfc #000000 #000000 0 1;
#X obj 302 640 outlet;
#X obj 713 334 spigot;
#X obj 752 272 - 1;
#X obj 752 296 abs;
#X obj 539 468 spigot;
#X obj 302 552 expr if($f1 > 0 \, 1 \, 0);
#X obj 302 576 tgl 19 0 empty empty empty 0 -10 0 12 #fcfcfc #000000 #000000 0 1;
#X obj 302 601 spigot;
#X obj 112 45 loadbang;
#X msg 112 69 0;
#X obj 268 229 hsl 195 50 0 1 0 0 empty empty empty -2 -10 0 12 #fcfcfc #ff0400 #000000 0 1;
#X obj 268 304 hsl 195 50 0 1 0 0 empty empty empty -2 -10 0 12 #fcfcfc #ff0400 #000000 0 1;
#N canvas 324 362 450 278 (subpatch) 0;
#X array \$0-draw-X 24 float 3;
#A 0 0.171801 0.171801 0.24763 0.356635 0.440758 0.405213 0.328199 0.279621 0.233412 0.234597 0.238152 0.405213 0.60782 0.772512 0.85782 0.88981 0 0 0 0 0 0 0 0;
#X coords 0 1 24 0 200 50 1 0 0;
#X restore 265 229 graph;
#N canvas 411 449 450 278 (subpatch) 0;
#X array \$0-draw-Y 24 float 3;
#A 0 0.94 0.94 0.918824 0.874118 0.765882 0.687059 0.589412 0.518824 0.432941 0.368235 0.361176 0.238824 0.198824 0.163529 0.110588 0.0905882 0 0 0 0 0 0 0 1;
#X coords 0 1 24 0 200 50 1 0 0;
#X restore 265 304 graph;
#X obj 78 554 / 100;
#X obj 230 176 bng 19 250 50 0 empty empty RESET 30 10 0 12 #ff0400 #000000 #000000;
#X obj 782 117 route list;
#X obj 834 149 route reset;
#X obj 713 150 route parameters;
#X obj 834 173 sel 1;
#X obj 713 174 unpack f f;
#X connect 1 0 65 0;
#X connect 2 0 1 0;
#X connect 3 0 6 0;
#X connect 3 0 11 0;
#X connect 3 0 47 0;
#X connect 4 0 7 0;
#X connect 5 0 46 0;
#X connect 6 0 50 0;
#X connect 7 0 8 0;
#X connect 9 0 10 0;
#X connect 9 0 11 1;
#X connect 9 0 14 1;
#X connect 9 0 30 1;
#X connect 9 0 36 1;
#X connect 9 0 63 1;
#X connect 10 0 27 0;
#X connect 12 0 13 0;
#X connect 12 0 20 0;
#X connect 12 0 28 0;
#X connect 13 0 9 0;
#X connect 15 0 16 0;
#X connect 16 0 17 0;
#X connect 16 0 18 0;
#X connect 19 0 9 0;
#X connect 20 0 19 0;
#X connect 20 0 25 0;
#X connect 20 0 15 0;
#X connect 21 0 23 0;
#X connect 23 0 22 0;
#X connect 23 0 26 0;
#X connect 24 0 23 1;
#X connect 24 0 36 1;
#X connect 24 0 63 1;
#X connect 25 0 21 0;
#X connect 25 1 24 0;
#X connect 27 0 9 1;
#X connect 28 0 29 0;
#X connect 29 0 30 0;
#X connect 30 0 22 0;
#X connect 30 0 26 0;
#X connect 31 0 38 1;
#X connect 32 0 33 0;
#X connect 32 0 39 1;
#X connect 32 0 40 0;
#X connect 32 0 51 0;
#X connect 32 0 56 1;
#X connect 33 0 34 0;
#X connect 34 0 35 0;
#X connect 34 0 31 0;
#X connect 34 0 37 0;
#X connect 34 0 63 0;
#X connect 35 0 36 0;
#X connect 36 0 34 1;
#X connect 37 0 38 0;
#X connect 37 0 54 0;
#X connect 38 0 39 0;
#X connect 39 0 5 0;
#X connect 40 0 41 0;
#X connect 41 0 34 0;
#X connect 42 0 2 0;
#X connect 43 0 42 0;
#X connect 44 0 45 0;
#X connect 45 0 43 0;
#X connect 47 0 48 0;
#X connect 48 0 53 0;
#X connect 50 0 5 0;
#X connect 51 0 52 0;
#X connect 52 0 50 1;
#X connect 52 0 53 1;
#X connect 53 0 49 0;
#X connect 54 0 55 0;
#X connect 55 0 56 0;
#X connect 56 0 49 0;
#X connect 57 0 58 0;
#X connect 58 0 32 0;
#X connect 63 0 59 0;
#X connect 63 0 60 0;
#X connect 64 0 15 0;
#X connect 64 0 19 0;
#X connect 64 0 25 0;
#X connect 64 0 41 0;
#X connect 65 0 66 0;
#X connect 65 0 67 0;
#X connect 66 0 68 0;
#X connect 67 0 69 0;
#X connect 68 0 64 0;
#X connect 69 0 3 0;
#X connect 69 1 6 1;
#X connect 69 1 4 0;
#X connect 69 1 14 0;
#X coords 0 -1 1 1 390 280 1 100 100;
