#N canvas -841 -220 514 527 12;
#X declare -lib zexy;
#X obj 281 25 declare -lib zexy;
#N canvas 842 277 950 692 test 0;
#X obj 101 118 cnv 15 200 360 empty empty empty 20 12 0 14 #e0e0e0 #404040 0;
#X obj 110 134 vsl 30 128 0 127 0 0 01_FRQ 01_FRQ-SET 01_FRQ -1 -9 0 10 #00fc04 #000000 #000000 0 1;
#X obj 160 134 vsl 30 128 0 127 0 0 01_RUN 01_RUN-SET 01_RUN -1 -9 0 10 #00fc04 #000000 #000000 0 1;
#X obj 210 134 vsl 30 128 0 127 0 0 02_FRQ 02_FRQ-SET 02_FRQ -1 -9 0 10 #00fc04 #000000 #000000 0 1;
#X obj 260 134 vsl 30 128 0 127 0 0 02_RUN 02_RUN-SET 02_RUN -1 -9 0 10 #00fc04 #000000 #000000 0 1;
#X obj 110 294 vsl 30 128 0 127 0 0 FIL_FRQ FIL_FRQ-SET FIL_FRQ -5 -9 0 10 #00fc04 #000000 #000000 0 1;
#X obj 160 293 vsl 30 128 0 127 0 0 FIL_RES FIL_RES-SET FIL_RES -5 -9 0 10 #00fc04 #000000 #000000 0 1;
#X obj 210 294 vsl 30 128 0 127 0 0 FIL_RUN FIL_RUN-SET FIL_RUN -5 -9 0 10 #00fc04 #000000 #000000 0 1;
#X obj 260 294 vsl 30 128 0 127 0 0 FIL_SWP FIL_SWP-SET FIL_SWP -5 -9 0 10 #00fc04 #000000 #000000 0 1;
#X obj 337 423 *~ 0.9;
#X obj 337 458 outlet~;
#N canvas 98 102 1140 797 rungler 0;
#X text 24 533 Sept 2016;
#X text 24 544 macumbista@gmail.com;
#X obj 35 304 samphold~;
#X obj 104 305 samphold~;
#X obj 180 305 samphold~;
#X obj 249 306 samphold~;
#X obj 320 305 samphold~;
#X obj 390 305 samphold~;
#X obj 460 305 samphold~;
#X obj 530 305 samphold~;
#X obj 161 103 clip~ 0 1;
#X text 18 401 3 bit DAC;
#X text 23 519 Derek Holzer;
#X text 617 275 shift register based on 4021 CMOS IC;
#X text 195 548 RUNGLER concept and analog design by Rob Hordijk 2009;
#X obj 88 399 expr~ (($v1/8)+($v2/4)+($v3/2));
#X obj 161 54 expr~ $v1 >~ 0.5;
#X obj 161 23 inlet~ O1pls;
#X obj 581 21 inlet~ O2pls;
#X obj 88 470 outlet~ RUN;
#X obj 181 470 outlet~ XOR;
#X obj 581 164 expr~ $v1 > 0;
#X obj 35 332 s~ \$0-1-sh;
#X obj 104 332 s~ \$0-2-sh;
#X obj 180 332 s~ \$0-3-sh;
#X obj 249 332 s~ \$0-4-sh;
#X obj 320 332 s~ \$0-5-sh;
#X obj 390 332 s~ \$0-6-sh;
#X obj 460 332 s~ \$0-7-sh;
#X obj 530 279 r~ \$0-7-sh;
#X obj 460 279 r~ \$0-6-sh;
#X obj 390 279 r~ \$0-5-sh;
#X obj 320 279 r~ \$0-4-sh;
#X obj 249 279 r~ \$0-3-sh;
#X obj 180 279 r~ \$0-2-sh;
#X obj 104 279 r~ \$0-1-sh;
#X obj 161 133 expr~ $v1 ^ $v2;
#X text 394 108 to force the next sample;
#X text 393 94 reset to default 1e+20;
#X obj 337 69 r RESET;
#X msg 337 97 reset 0;
#X connect 2 0 22 0;
#X connect 3 0 23 0;
#X connect 4 0 24 0;
#X connect 5 0 25 0;
#X connect 6 0 26 0;
#X connect 7 0 15 0;
#X connect 7 0 27 0;
#X connect 8 0 15 1;
#X connect 8 0 28 0;
#X connect 9 0 15 2;
#X connect 9 0 36 1;
#X connect 10 0 36 0;
#X connect 15 0 19 0;
#X connect 16 0 10 0;
#X connect 17 0 16 0;
#X connect 18 0 21 0;
#X connect 21 0 2 1;
#X connect 21 0 3 1;
#X connect 21 0 4 1;
#X connect 21 0 5 1;
#X connect 21 0 6 1;
#X connect 21 0 7 1;
#X connect 21 0 8 1;
#X connect 21 0 9 1;
#X connect 29 0 9 0;
#X connect 30 0 8 0;
#X connect 31 0 7 0;
#X connect 32 0 6 0;
#X connect 33 0 5 0;
#X connect 34 0 4 0;
#X connect 35 0 3 0;
#X connect 36 0 2 0;
#X connect 36 0 20 0;
#X connect 39 0 40 0;
#X connect 40 0 9 0;
#X connect 40 0 8 0;
#X connect 40 0 7 0;
#X connect 40 0 6 0;
#X connect 40 0 5 0;
#X connect 40 0 4 0;
#X connect 40 0 3 0;
#X connect 40 0 2 0;
#X restore 355 168 pd rungler;
#N canvas 67 146 622 538 O1 0;
#X obj 16 119 line~;
#X obj 320 145 *~;
#X obj 335 119 line~;
#X obj 335 98 pack 0 50;
#X obj 16 218 +~;
#X obj 16 96 pack 0 50;
#X obj 16 275 mtof~;
#X obj 16 252 clip~ -60 127;
#N canvas 0 23 613 652 tri 0;
#X obj 202 103 inlet~;
#X obj 193 212 *~ -1;
#X obj 193 241 +~ 1;
#X obj 193 300 *~ -4;
#X obj 202 136 phasor~;
#X obj 193 271 max~;
#X obj 193 327 +~ 3;
#X obj 255 291 expr~ $v1 < 0.5;
#X obj 127 416 outlet~ tri;
#X obj 262 415 outlet~ pls;
#X obj 255 327 expr~ ($v1 * 2) - 1;
#X msg 258 102 0;
#X obj 258 74 r RESET;
#X connect 0 0 4 0;
#X connect 1 0 2 0;
#X connect 2 0 5 0;
#X connect 3 0 6 0;
#X connect 4 0 1 0;
#X connect 4 0 5 1;
#X connect 4 0 7 0;
#X connect 5 0 3 0;
#X connect 6 0 8 0;
#X connect 7 0 10 0;
#X connect 10 0 9 0;
#X connect 11 0 4 1;
#X connect 12 0 11 0;
#X restore 16 305 pd tri;
#X obj 16 376 outlet~ tri;
#X obj 320 21 inlet~ RUN;
#X obj 116 376 s~ O1pls;
#X obj 335 73 / 2;
#X obj 16 50 r 01_FRQ;
#X obj 335 46 r 01_RUN;
#X obj 16 73 maxlib/scale 0 127 -61 80;
#X connect 0 0 4 0;
#X connect 1 0 4 1;
#X connect 2 0 1 1;
#X connect 3 0 2 0;
#X connect 4 0 7 0;
#X connect 5 0 0 0;
#X connect 6 0 8 0;
#X connect 7 0 6 0;
#X connect 8 0 9 0;
#X connect 8 1 11 0;
#X connect 10 0 1 0;
#X connect 12 0 3 0;
#X connect 13 0 15 0;
#X connect 14 0 12 0;
#X connect 15 0 5 0;
#X restore 355 212 pd O1;
#N canvas 787 82 566 577 comparator 0;
#X text 254 205 macumbista@gmail.com;
#X text 254 184 OCT 2016;
#X text 254 195 DEREK HOLZER;
#X obj 122 77 expr~ $v1 > $v2;
#X obj 122 128 outlet~ pwm;
#X obj 197 9 inlet~ tri2;
#X obj 108 10 inlet~ tri1;
#X connect 3 0 4 0;
#X connect 5 0 3 1;
#X connect 6 0 3 0;
#X restore 355 250 pd comparator;
#N canvas 988 145 622 538 O2 0;
#X obj 16 119 line~;
#X obj 320 145 *~;
#X obj 335 119 line~;
#X obj 335 98 pack 0 50;
#X obj 16 228 +~;
#X obj 16 96 pack 0 50;
#X obj 16 275 mtof~;
#X obj 16 252 clip~ -60 127;
#N canvas 0 23 463 538 tri 0;
#X obj 202 103 inlet~;
#X obj 193 212 *~ -1;
#X obj 193 241 +~ 1;
#X obj 193 300 *~ -4;
#X obj 202 136 phasor~;
#X obj 193 271 max~;
#X obj 193 327 +~ 3;
#X obj 255 291 expr~ $v1 < 0.5;
#X obj 127 416 outlet~ tri;
#X obj 262 415 outlet~ pls;
#X obj 255 327 expr~ ($v1 * 2) - 1;
#X msg 258 102 0;
#X obj 258 74 r RESET;
#X connect 0 0 4 0;
#X connect 1 0 2 0;
#X connect 2 0 5 0;
#X connect 3 0 6 0;
#X connect 4 0 1 0;
#X connect 4 0 5 1;
#X connect 4 0 7 0;
#X connect 5 0 3 0;
#X connect 6 0 8 0;
#X connect 7 0 10 0;
#X connect 10 0 9 0;
#X connect 11 0 4 1;
#X connect 12 0 11 0;
#X restore 16 305 pd tri;
#X obj 16 376 outlet~ tri;
#X obj 320 21 inlet~ RUN;
#X obj 107 376 s~ O2pls;
#X obj 335 73 / 2;
#X obj 16 50 r 02_FRQ;
#X obj 335 46 r 02_RUN;
#X obj 16 73 maxlib/scale 0 127 -59 80;
#X connect 0 0 4 0;
#X connect 1 0 4 1;
#X connect 2 0 1 1;
#X connect 3 0 2 0;
#X connect 4 0 7 0;
#X connect 5 0 0 0;
#X connect 6 0 8 0;
#X connect 7 0 6 0;
#X connect 8 0 9 0;
#X connect 8 1 11 0;
#X connect 10 0 1 0;
#X connect 12 0 3 0;
#X connect 13 0 15 0;
#X connect 14 0 12 0;
#X connect 15 0 5 0;
#X restore 422 211 pd O2;
#X obj 355 125 r~ O1pls;
#X obj 422 124 r~ O2pls;
#X obj 337 315 *~ 0.5;
#X obj 337 281 +~;
#N canvas 90 86 1051 764 filter 0;
#X obj 154 256 mtof~;
#X obj 229 101 line~;
#X msg 229 75 \$1 50;
#X obj 485 156 *~;
#X obj 485 72 / 127;
#X obj 485 128 line~;
#X msg 485 98 \$1 50;
#X obj 579 72 *~ 127;
#X obj 661 156 *~;
#X obj 661 72 / 127;
#X obj 661 128 line~;
#X msg 661 98 \$1 50;
#X obj 755 72 *~ 127;
#X obj 154 202 expr~ $v1+$v2+$v3+$v4;
#X obj 154 229 clip~ 0 127;
#X obj 579 45 inlet~ RUN;
#X obj 142 48 inlet~ SIG;
#X obj 755 45 inlet~ O2tri;
#X obj 139 572 outlet~;
#X msg 202 309 \$1 50;
#X text 303 535 Derek Holzer;
#X text 389 284 FILRES: -3dB to 30dB;
#X obj 229 48 r FIL_FRQ;
#X obj 485 45 r $FIL_RUN;
#X obj 661 45 r FIL_SWP;
#X obj 202 256 r FIL_RES;
#X obj 202 283 maxlib/scale 0 127 -3 30;
#X obj 139 476 vcf~;
#X obj 139 527 *~;
#X obj 253 409 line~;
#X msg 253 383 \$1 50;
#X obj 255 358 maxlib/scale 0 127 2 12;
#X text 303 558 NOV 2021;
#X text 301 579 idholzer@kth.se;
#X text 433 358 gain compensation;
#X connect 0 0 27 1;
#X connect 1 0 13 0;
#X connect 2 0 1 0;
#X connect 3 0 13 2;
#X connect 4 0 6 0;
#X connect 5 0 3 0;
#X connect 6 0 5 0;
#X connect 7 0 3 1;
#X connect 8 0 13 3;
#X connect 9 0 11 0;
#X connect 10 0 8 0;
#X connect 11 0 10 0;
#X connect 12 0 8 1;
#X connect 13 0 14 0;
#X connect 14 0 0 0;
#X connect 15 0 7 0;
#X connect 16 0 27 0;
#X connect 17 0 12 0;
#X connect 19 0 27 2;
#X connect 22 0 2 0;
#X connect 23 0 4 0;
#X connect 24 0 9 0;
#X connect 25 0 26 0;
#X connect 25 0 31 0;
#X connect 26 0 19 0;
#X connect 27 0 28 0;
#X connect 28 0 18 0;
#X connect 29 0 28 1;
#X connect 30 0 29 0;
#X connect 31 0 30 0;
#X restore 337 344 pd filter;
#N canvas 187 410 402 327 limiter 0;
#X obj 68 49 inlet~;
#X obj 68 204 outlet~;
#X obj 68 101 limiter~;
#X obj 86 130 z~;
#X obj 68 163 *~;
#X msg 137 48 COMPRESS;
#X obj 137 19 loadbang, f 9;
#X connect 0 0 2 0;
#X connect 0 0 3 0;
#X connect 2 0 4 0;
#X connect 3 0 4 1;
#X connect 4 0 1 0;
#X connect 5 0 2 0;
#X connect 6 0 5 0;
#X restore 337 394 pd limiter;
#X obj 337 369 hip~ 10;
#X obj 265 448 bng 25 250 50 0 RESET RESET-SET RESET 0 -7 0 10 #fc0400 #000000 #000000;
#N canvas 0 25 952 438 randomize 0;
#X obj 110 121 inlet;
#X obj 110 268 random 128;
#X obj 189 268 random 128;
#X obj 268 268 random 128;
#X obj 347 268 random 128;
#X obj 425 268 random 128;
#X obj 504 268 random 128;
#X obj 583 268 random 128;
#X obj 662 268 random 128;
#X obj 110 352 outlet;
#X obj 189 353 outlet;
#X obj 268 353 outlet;
#X obj 347 353 outlet;
#X obj 425 353 outlet;
#X obj 504 353 outlet;
#X obj 583 353 outlet;
#X obj 662 353 outlet;
#X msg 110 244 seed 123;
#X msg 189 244 seed 234;
#X msg 268 244 seed 345;
#X msg 347 244 seed 456;
#X msg 425 244 seed 567;
#X msg 504 244 seed 678;
#X msg 583 244 seed 789;
#X msg 662 244 seed 890;
#X obj 662 121 loadbang;
#X obj 110 151 t b b b b b b b b;
#X connect 0 0 26 0;
#X connect 1 0 9 0;
#X connect 2 0 10 0;
#X connect 3 0 11 0;
#X connect 4 0 12 0;
#X connect 5 0 13 0;
#X connect 6 0 14 0;
#X connect 7 0 15 0;
#X connect 8 0 16 0;
#X connect 17 0 1 0;
#X connect 18 0 2 0;
#X connect 19 0 3 0;
#X connect 20 0 4 0;
#X connect 21 0 5 0;
#X connect 22 0 6 0;
#X connect 23 0 7 0;
#X connect 24 0 8 0;
#X connect 25 0 24 0;
#X connect 25 0 23 0;
#X connect 25 0 22 0;
#X connect 25 0 21 0;
#X connect 25 0 20 0;
#X connect 25 0 19 0;
#X connect 25 0 18 0;
#X connect 25 0 17 0;
#X connect 26 0 1 0;
#X connect 26 1 2 0;
#X connect 26 2 3 0;
#X connect 26 3 4 0;
#X connect 26 4 5 0;
#X connect 26 5 6 0;
#X connect 26 6 7 0;
#X connect 26 7 8 0;
#X restore 212 523 pd randomize;
#X obj 212 448 bng 25 250 50 0 RAND RAND-SET RAND 0 -7 0 10 #fc0400 #000000 #000000;
#X obj 212 490 t b b;
#X text 480 210 these two oscillators needed to be detuned from each other;
#X text 482 228 whole instrument can lock up if at exact same frequency;
#X connect 9 0 10 0;
#X connect 11 0 12 0;
#X connect 11 0 18 0;
#X connect 11 0 14 0;
#X connect 11 0 19 1;
#X connect 12 0 13 0;
#X connect 13 0 18 1;
#X connect 14 0 13 1;
#X connect 14 0 19 2;
#X connect 15 0 11 0;
#X connect 16 0 11 1;
#X connect 17 0 19 0;
#X connect 18 0 17 0;
#X connect 19 0 21 0;
#X connect 20 0 9 0;
#X connect 21 0 20 0;
#X connect 23 0 1 0;
#X connect 23 1 2 0;
#X connect 23 2 3 0;
#X connect 23 3 4 0;
#X connect 23 4 5 0;
#X connect 23 5 6 0;
#X connect 23 6 7 0;
#X connect 23 7 8 0;
#X connect 24 0 25 0;
#X connect 25 0 23 0;
#X connect 25 1 22 0;
#X coords 0 -1 1 1 202 380 1 100 100;
#X restore 37 6 pd test;
#X obj 37 434 dac~;
#X obj 282 86 oscparse;
#X obj 282 60 netreceive -u -b 8000;
#X obj 282 110 list trim;
#X obj 282 134 route params;
#X obj 283 157 symbol;
#X obj 283 207 unpack 0 0 0 0 0 0 0 0;
#X obj 283 234 s 01_FRQ-SET;
#X obj 284 260 s 01_RUN-SET;
#X obj 283 287 s 02_FRQ-SET;
#X obj 281 314 s 02_RUN-SET;
#X obj 385 238 s FIL_FRQ-SET;
#X obj 383 263 s FIL_RES-SET;
#X obj 384 287 s FIL_RUN-SET;
#X obj 385 311 s FIL_SWP-SET;
#X obj 283 180 symbol2list -;
#X obj 37 400 *~;
#X obj 72 400 hsl 162 19 0 1 0 0 empty empty vol 10 10 0 12 #fcfcfc #000000 #000000 0 1;
#X connect 1 0 18 0;
#X connect 3 0 5 0;
#X connect 4 0 3 0;
#X connect 5 0 6 0;
#X connect 6 0 7 0;
#X connect 7 0 17 0;
#X connect 8 0 9 0;
#X connect 8 1 10 0;
#X connect 8 2 11 0;
#X connect 8 3 12 0;
#X connect 8 4 13 0;
#X connect 8 5 14 0;
#X connect 8 6 15 0;
#X connect 8 7 16 0;
#X connect 17 0 8 0;
#X connect 18 0 2 0;
#X connect 18 0 2 1;
#X connect 19 0 18 1;
